<svg width="54" height="54" viewBox="0 0 54 54" fill="none" xmlns="http://www.w3.org/2000/svg">
<g id="Group 21777">
<rect id="Rectangle 60" width="54" height="54" rx="27" fill="#F5F5F5"/>
<path id="Vector" d="M36.792 33.7033C36.429 34.5418 35.9994 35.3136 35.5017 36.0232C34.8232 36.9906 34.2676 37.6602 33.8395 38.0321C33.1758 38.6424 32.4647 38.955 31.7033 38.9728C31.1566 38.9728 30.4974 38.8172 29.73 38.5016C28.9601 38.1876 28.2525 38.032 27.6056 38.032C26.9271 38.032 26.1994 38.1876 25.4211 38.5016C24.6415 38.8172 24.0136 38.9816 23.5334 38.9979C22.8032 39.0291 22.0754 38.7076 21.3489 38.032C20.8852 37.6276 20.3052 36.9343 19.6104 35.9521C18.865 34.9032 18.2521 33.687 17.772 32.3004C17.2578 30.8027 17 29.3523 17 27.9482C17 26.3398 17.3475 24.9526 18.0437 23.7901C18.5908 22.8564 19.3186 22.1198 20.2295 21.5791C21.1405 21.0384 22.1247 20.7628 23.1847 20.7452C23.7647 20.7452 24.5252 20.9246 25.4704 21.2772C26.4129 21.6309 27.0181 21.8103 27.2834 21.8103C27.4817 21.8103 28.154 21.6006 29.2937 21.1824C30.3715 20.7945 31.281 20.6339 32.0262 20.6972C34.0454 20.8601 35.5624 21.6561 36.5713 23.0901C34.7654 24.1843 33.8721 25.7169 33.8898 27.6829C33.9061 29.2142 34.4617 30.4886 35.5535 31.5004C36.0483 31.97 36.6009 32.333 37.2157 32.5907C37.0823 32.9774 36.9416 33.3477 36.792 33.7033ZM32.161 15.4801C32.161 16.6804 31.7225 17.8011 30.8485 18.8384C29.7937 20.0716 28.5179 20.7841 27.1344 20.6717C27.1158 20.5208 27.1065 20.3689 27.1065 20.2169C27.1065 19.0646 27.6081 17.8315 28.4989 16.8232C28.9436 16.3127 29.5093 15.8882 30.1952 15.5496C30.8796 15.2161 31.527 15.0316 32.1358 15C32.1536 15.1605 32.161 15.3209 32.161 15.4801Z" fill="black"/>
</g>
</svg>
