<svg width="54" height="54" viewBox="0 0 54 54" fill="none" xmlns="http://www.w3.org/2000/svg">
<g id="Group 21777">
<rect id="Rectangle 60" width="54" height="54" rx="27" fill="#F5F5F5"/>
<g id="Group 21781">
<path id="rect887" d="M23.0923 20.7109H30.793V33.2885H23.0923V20.7109Z" fill="#FF5F00"/>
<path id="path889" d="M23.8857 26.9998C23.8848 25.7887 24.1593 24.5932 24.6886 23.5039C25.2179 22.4145 25.988 21.4599 26.9407 20.7121C25.7607 19.7848 24.3437 19.2081 22.8515 19.0481C21.3593 18.888 19.8522 19.151 18.5024 19.8069C17.1526 20.4629 16.0146 21.4854 15.2184 22.7575C14.4222 24.0296 14 25.5001 14 27.0009C14 28.5016 14.4222 29.9721 15.2184 31.2442C16.0146 32.5163 17.1526 33.5388 18.5024 34.1948C19.8522 34.8507 21.3593 35.1137 22.8515 34.9536C24.3437 34.7936 25.7607 34.2169 26.9407 33.2896C25.9877 32.5416 25.2174 31.5866 24.6881 30.4968C24.1588 29.4071 23.8845 28.2112 23.8857 26.9997V26.9998Z" fill="#EB001B"/>
<path id="path891" d="M39.1181 31.957V31.6993H39.2292V31.646H38.9648V31.6993H39.0693V31.9571L39.1181 31.957ZM39.6314 31.957V31.646H39.5514L39.4581 31.8682L39.3647 31.646H39.2848V31.957H39.3425V31.7215L39.4292 31.9237H39.4892L39.5758 31.7215V31.957H39.6314Z" fill="#F79E1B"/>
<path id="path893" d="M39.8828 27.0005C39.8828 28.5014 39.4605 29.9719 38.6641 31.2441C37.8678 32.5163 36.7296 33.5387 35.3796 34.1946C34.0297 34.8505 32.5224 35.1133 31.0301 34.953C29.5379 34.7927 28.1208 34.2157 26.9409 33.2881C27.8932 32.5397 28.6631 31.5848 29.1925 30.4954C29.722 29.406 29.997 28.2106 29.997 26.9994C29.997 25.7881 29.722 24.5927 29.1925 23.5034C28.6631 22.414 27.8932 21.459 26.9409 20.7106C28.1208 19.783 29.5379 19.2061 31.0301 19.0458C32.5224 18.8855 34.0297 19.1483 35.3797 19.8041C36.7296 20.46 37.8678 21.4825 38.6642 22.7546C39.4605 24.0268 39.8828 25.4974 39.8828 26.9983V27.0005Z" fill="#F79E1B"/>
</g>
</g>
</svg>
