<svg width="54" height="54" viewBox="0 0 54 54" fill="none" xmlns="http://www.w3.org/2000/svg">
<g id="Group 21777">
<rect id="Rectangle 60" width="54" height="54" rx="27" fill="#F5F5F5"/>
<g id="Group 21776">
<path id="Vector" d="M22.7786 38.1865L23.1946 35.5445L22.268 35.523H17.8438L20.9184 16.0276C20.9276 15.968 20.9578 15.9137 21.0037 15.8746C21.0495 15.8355 21.1079 15.8141 21.1681 15.8145H28.6281C31.1047 15.8145 32.8138 16.3298 33.7062 17.347C34.1245 17.8242 34.3909 18.3229 34.5198 18.8716C34.655 19.4474 34.6574 20.1354 34.5253 20.9744L34.5158 21.0357V21.5733L34.9341 21.8103C35.2535 21.9721 35.5405 22.1909 35.7811 22.4561C36.139 22.8641 36.3704 23.3826 36.4683 23.9974C36.5693 24.6296 36.5359 25.382 36.3704 26.2338C36.1796 27.2136 35.871 28.067 35.4543 28.7653C35.0866 29.3908 34.5922 29.9326 34.0028 30.3559C33.4493 30.7487 32.7916 31.047 32.0479 31.2379C31.3274 31.4256 30.5058 31.5202 29.6048 31.5202H29.0242C28.609 31.5202 28.2058 31.6697 27.8893 31.9377C27.5732 32.2086 27.3635 32.5829 27.2976 32.9939L27.2538 33.2317L26.519 37.8882L26.4856 38.0592C26.4768 38.1133 26.4617 38.1403 26.4394 38.1586C26.4179 38.1763 26.391 38.1861 26.3631 38.1865H22.7786Z" fill="#253B80"/>
<path id="Vector_2" d="M35.3305 21.0977C35.3082 21.24 35.2828 21.3856 35.2541 21.5351C34.2703 26.5861 30.9046 28.331 26.606 28.331H24.4173C23.8916 28.331 23.4486 28.7127 23.3667 29.2313L22.2461 36.3381L21.9288 38.3527C21.9161 38.4326 21.9209 38.5143 21.9429 38.5921C21.9649 38.67 22.0034 38.7422 22.056 38.8037C22.1085 38.8652 22.1737 38.9146 22.2472 38.9485C22.3207 38.9824 22.4006 39 22.4815 39H26.3634C26.8231 39 27.2136 38.666 27.2859 38.2127L27.3241 38.0154L28.055 33.3772L28.1019 33.1227C28.1735 32.6678 28.5648 32.3338 29.0245 32.3338H29.6051C33.3661 32.3338 36.3103 30.8068 37.1708 26.388C37.5303 24.5421 37.3442 23.0008 36.393 21.9168C36.0915 21.5815 35.7315 21.3039 35.3305 21.0977Z" fill="#179BD7"/>
<path id="Vector_3" d="M34.3009 20.6874C33.9868 20.5965 33.6672 20.5256 33.3441 20.475C32.7058 20.3769 32.0606 20.3299 31.4147 20.3343H25.5676C25.3451 20.3341 25.1299 20.4135 24.9608 20.5582C24.7917 20.7029 24.68 20.9033 24.6459 21.1232L23.402 29.0015L23.3662 29.2314C23.405 28.9806 23.5322 28.7519 23.7249 28.5868C23.9176 28.4217 24.163 28.331 24.4168 28.3311H26.6055C30.9041 28.3311 34.2699 26.5854 35.2537 21.5352C35.2831 21.3857 35.3078 21.2401 35.33 21.0978C35.0704 20.9616 34.7999 20.8475 34.5212 20.7566C34.4481 20.7323 34.3747 20.7093 34.3009 20.6874Z" fill="#222D65"/>
<path id="Vector_4" d="M24.646 21.1231C24.6799 20.9031 24.7916 20.7026 24.9607 20.558C25.1298 20.4134 25.3452 20.3342 25.5678 20.3349H31.4149C32.1076 20.3349 32.7542 20.3803 33.3443 20.4757C33.7436 20.5385 34.1374 20.6323 34.5222 20.7564C34.8124 20.8527 35.0821 20.9664 35.331 21.0976C35.6237 19.231 35.3286 17.9601 34.3193 16.8093C33.2067 15.5424 31.1986 15 28.6289 15H21.1689C20.644 15 20.1963 15.3817 20.1151 15.9011L17.0079 35.5969C16.9934 35.6883 16.9989 35.7818 17.024 35.8709C17.0491 35.96 17.0932 36.0427 17.1533 36.1131C17.2134 36.1835 17.288 36.2401 17.3721 36.279C17.4561 36.3178 17.5476 36.338 17.6402 36.3381H22.2458L23.4022 29.0014L24.646 21.1231Z" fill="#253B80"/>
</g>
</g>
</svg>
